<svg width="48" height="41" fill="none" xmlns="http://www.w3.org/2000/svg"><path stroke="#000" d="M12.17 14.36h23v13h-23z"/><path d="m31.18 20.44.4.3-.4-.3-.01.01-.01.02-.01.01c-.12.2-.3.46-.32.77-.02.35.13.65.35.93.17.23.48.53.79.82l.05.05c.34.33.7.68 1 1.01v.01c.56.62 1.04 1.19 1.41 1.68.38.5.6.88.7 1.16.08.27.01.34 0 .34-.01.03-.12.1-.43.1h-2.63a.87.87 0 0 1-.42-.09 2.02 2.02 0 0 1-.47-.37l-.56-.59-.16-.18c-.3-.32-.66-.7-1.11-1.15l-.01-.01c-1.57-1.48-2.36-1.8-2.96-1.8-.27 0-.66.02-.93.35-.12.15-.18.32-.21.48-.04.17-.05.35-.05.55v2.31c0 .27-.04.3-.08.32-.13.09-.46.19-1.3.19-2.58 0-5.5-1.55-7.6-4.51a28.57 28.57 0 0 1-3.23-5.6c-.3-.74-.51-1.34-.64-1.8a4.08 4.08 0 0 1-.17-.86l.01-.14.01-.02.07-.04c.06-.02.16-.03.3-.03h2.63c.26 0 .36.05.41.1.08.07.17.22.3.56a24.15 24.15 0 0 0 2.36 4.93c.42.65.83 1.2 1.21 1.58.2.2.39.37.57.49.19.12.41.22.67.22.11 0 .26 0 .41-.07.17-.08.3-.2.39-.36.15-.27.18-.64.18-1.05V16.93a3.36 3.36 0 0 0-.66-1.95l-.18-.23-.01-.01a3 3 0 0 1-.13-.17c-.06-.08-.06-.1-.06-.12v-.02a.1.1 0 0 1 .03-.03c.02-.02.06-.04.14-.04h4.13a.48.48 0 0 1 .17.02l.04.1c.02.08.03.18.03.32v5.11c0 .66.33 1.24.91 1.24.57 0 1-.36 1.58-.94l.02-.01a18.18 18.18 0 0 0 2.39-3.52 26.38 26.38 0 0 0 .9-1.86l.02-.03a.73.73 0 0 1 .22-.31.74.74 0 0 1 .47-.12h2.62c.24 0 .33.04.35.06v.07l-.04.2c-.07.3-.3.8-.64 1.43a64.94 64.94 0 0 1-2.77 4.27l-.03.04h-.01v.01Z" fill="#83B3D3" stroke="#000"/></svg>